<svg id="Group_5" data-name="Group 5" xmlns="http://www.w3.org/2000/svg" width="24" height="24" viewBox="0 0 24 24">
  <rect id="Path" width="24" height="24" fill="#888" opacity="0"/>
  <g id="single-03" transform="translate(3 4)">
    <path id="Path-2" data-name="Path" d="M14.68,0A6.731,6.731,0,0,1,9.156,3.253,6.731,6.731,0,0,1,3.633,0,8.4,8.4,0,0,0,.018,4.978a.674.674,0,0,0,.321.729,16.966,16.966,0,0,0,17.635,0,.674.674,0,0,0,.321-.729A8.4,8.4,0,0,0,14.68,0Z" transform="translate(0.198 8.71)" fill="#1c1c1c"/>
    <path id="Path-3" data-name="Path" d="M4.677,0A4.467,4.467,0,0,0,0,4.222c0,2.267,1.964,5.63,4.677,5.63S9.354,6.49,9.354,4.222A4.467,4.467,0,0,0,4.677,0Z" transform="translate(4.677)" fill="#1c1c1c"/>
  </g>
</svg>
