<svg xmlns="http://www.w3.org/2000/svg" width="13.789" height="14.003" viewBox="0 0 13.789 14.003">
  <g id="google" transform="translate(0 0)">
    <path id="Path" d="M6.27,2.864a4.115,4.115,0,0,1,2.656.97l2.081-1.982A6.991,6.991,0,0,0,0,3.893L2.346,5.7A4.141,4.141,0,0,1,6.27,2.864Z" transform="translate(0.73 0)" fill="#d94f3d"/>
    <path id="Path-2" data-name="Path" d="M2.864,3.107a4.118,4.118,0,0,1,.212-1.3L.73,0a6.979,6.979,0,0,0,0,6.213L3.076,4.405a4.118,4.118,0,0,1-.212-1.3Z" transform="translate(0 3.893)" fill="#f2c042"/>
    <path id="Path-3" data-name="Path" d="M6.682,0H0V2.864H3.786A3.413,3.413,0,0,1,2.337,4.824L4.665,6.619C6.152,5.284,7.026,3.113,6.682,0Z" transform="translate(7.032 5.727)" fill="#5085ed"/>
    <path id="Path-4" data-name="Path" d="M8.638,2.253a4.448,4.448,0,0,1-2.368.585A4.141,4.141,0,0,1,2.346,0L0,1.808A7.007,7.007,0,0,0,6.27,5.7a6.957,6.957,0,0,0,4.7-1.655Z" transform="translate(0.73 8.299)" fill="#57a75c"/>
  </g>
</svg>
