<svg id="Icon_3" data-name="Icon 3" xmlns="http://www.w3.org/2000/svg" width="24" height="24" viewBox="0 0 24 24">
  <rect id="Path" width="24" height="24" fill="#888" opacity="0"/>
  <g id="briefcase-26" transform="translate(3 3)">
    <path id="Path-2" data-name="Path" d="M15.75,0H10.125A1.063,1.063,0,0,1,9,1.125H6.75A1.063,1.063,0,0,1,5.625,0H0V2.25A1.063,1.063,0,0,0,1.125,3.375h13.5A1.063,1.063,0,0,0,15.75,2.25Z" transform="translate(1.125 14.625)" fill="#1c1c1c"/>
    <path id="Shape" d="M11.25,13.5V12.375a1.063,1.063,0,0,0-1.125-1.125H7.875A1.063,1.063,0,0,0,6.75,12.375V13.5H1.125A1.063,1.063,0,0,1,0,12.375V5.625A1.063,1.063,0,0,1,1.125,4.5H4.5V1.125A1.063,1.063,0,0,1,5.625,0h6.75A1.063,1.063,0,0,1,13.5,1.125V4.5h3.375A1.063,1.063,0,0,1,18,5.625v6.75A1.063,1.063,0,0,1,16.875,13.5Z" fill="#1c1c1c"/>
  </g>
</svg>
