<svg xmlns="http://www.w3.org/2000/svg" width="360" height="335" viewBox="0 0 360 335">
    <g fill="none">
        <path fill="#98D8F3" d="M127.912 62.243C112.6 71.306 95.352 75.92 78.474 79.705c-16.878 3.786-33.981 6.96-50.334 13.68C17.622 97.71 6.703 104.33 2.208 113.819-2.12 122.953.663 132.21 4.156 140.2c2.63 6.018 5.837 12.061 11.81 15.47 4.143 2.36 9.325 3.265 13.785 5.213 15.517 6.787 19.616 24.722 18.79 41.515-.376 7.872-1.565 15.907-.819 23.557.746 7.65 3.675 15.092 10.196 19.226 6.467 4.099 15.626 4.438 24.456 3.157 17.935-2.604 35.407-11.2 51.962-20.31 36.644-20.175 71.373-43.64 106.006-67.045 12.815-8.666 25.683-17.371 37.288-27.41 6.443-5.573 12.714-11.901 15.258-19.165 3.233-9.222-.792-18.792-9.387-22.314-14.406-5.896-36.573 4.47-49.271-3.618-6.99-4.451-8.692-13.283-8.41-21.718.605-18.096 8.214-38.474-.437-53.21-5.94-10.121-19.568-15.371-33.67-12.973-14.783 2.515-30.42 13.336-33.636 26.797-3.307 13.858-16.645 26.869-30.165 34.87z" opacity=".278" transform="translate(-29)"/>
        <path fill="#0AD9C6" d="M302.355 289.122c18.625-4.805 37.997-4.248 56.746-2.924 18.748 1.323 37.557 3.37 56.598 1.395 12.248-1.27 25.574-4.865 33.004-13.56 7.15-8.37 6.898-19.13 5.538-28.765-1.025-7.256-2.644-14.722-7.915-20.256-3.658-3.834-8.82-6.445-12.928-9.94-14.287-12.17-13.426-32.607-7.738-50.26 2.654-8.278 6.205-16.473 7.621-24.872 1.417-8.399.489-17.268-5.147-23.75-5.59-6.427-15.076-9.7-24.684-11.137-19.514-2.92-40.266.7-60.205 5.16-44.138 9.882-87.217 23.883-130.179 37.85-15.898 5.174-31.863 10.373-46.89 17.397-8.342 3.898-16.721 8.657-21.47 15.598-6.03 8.812-4.568 20.3 3.415 26.788 13.381 10.868 39.554 6.85 50.518 19.513 6.035 6.97 5.28 16.932 2.562 25.841-5.83 19.114-19.644 38.437-14.824 56.907 3.31 12.685 16.062 22.615 31.506 24.536 16.192 2.014 35.661-4.563 42.893-17.902 7.44-13.734 25.134-23.378 41.579-27.62z" opacity=".15" transform="translate(-29)"/>
    </g>
</svg>
